# xmcd
#
# Track frame offsets:
#	150
#	13610
#	29612
#	39752
#	51417
#	61402
#	74240
#	91985
#	104302
#	114320
#	124945
#	137982
#	151455
#	162680
#
# Disc length: 2320 seconds
#
# Revision: 0
# Processed by: cddbd v1.4PL0 Copyright (c) Steve Scherf et al.
#
# Submitted via: MusicManager v6.1.1.0
#
DISCID=cb090e0e
DTITLE=Lynn Anderson - Rose Garden
DYEAR=1992
DGENRE=country
TTITLE0=Rose Garden
TTITLE1=For The Good Times
TTITLE2=Another Lonely Night
TTITLE3=I Don't Want To Play House
TTITLE4=Snowbird
TTITLE5=Your Sweet Love Lifted Me
TTITLE6=Sunday Morning Coming Down
TTITLE7=I Still Belong To You
TTITLE8=I Wish I Was A Little Boy Again
TTITLE9=It's Only Make Believe
TTITLE10=Nothing Between Us
TTITLE11=Knock Three Times
TTITLE12=Help Me Make It Through The Night
TTITLE13=Proud Mary
EXTD=
EXTT0=
EXTT1=
EXTT2=
EXTT3=
EXTT4=
EXTT5=
EXTT6=
EXTT7=
EXTT8=
EXTT9=
EXTT10=
EXTT11=
EXTT12=
EXTT13=
PLAYORDER=
